<?xml version="1.0" encoding="UTF-8"?>
<!DOCTYPE svg PUBLIC "-//W3C//DTD SVG 1.1//EN" "http://www.w3.org/Graphics/SVG/1.1/DTD/svg11.dtd">
<svg xmlns="http://www.w3.org/2000/svg" version="1.1" width="88px" height="92px" style="shape-rendering:geometricPrecision; text-rendering:geometricPrecision; image-rendering:optimizeQuality; fill-rule:evenodd; clip-rule:evenodd" xmlns:xlink="http://www.w3.org/1999/xlink">
<g><path style="opacity:0.977" fill="#c9cbcd" d="M 33.5,3.5 C 58.948,0.460516 76.1147,10.7938 85,34.5C 89.0608,60.4062 78.8941,77.9062 54.5,87C 29.7283,90.8708 12.5616,81.3708 3,58.5C -2.27065,31.4018 7.89602,13.0685 33.5,3.5 Z M 41.5,16.5 C 44.6516,15.9586 47.1516,16.9586 49,19.5C 49.4996,26.1583 49.6663,32.825 49.5,39.5C 56.175,39.3337 62.8417,39.5004 69.5,40C 73.5,43.6667 73.5,47.3333 69.5,51C 62.8417,51.4996 56.175,51.6663 49.5,51.5C 49.6663,58.175 49.4996,64.8417 49,71.5C 44.8372,75.7475 41.1705,75.4141 38,70.5C 37.5005,64.1754 37.3338,57.8421 37.5,51.5C 30.825,51.6663 24.1583,51.4996 17.5,51C 13.3815,46.9266 13.7148,43.26 18.5,40C 24.8246,39.5005 31.1579,39.3338 37.5,39.5C 37.3338,33.1579 37.5005,26.8246 38,20.5C 38.6897,18.6498 39.8564,17.3164 41.5,16.5 Z"/></g>
</svg>
