<?xml version="1.0" encoding="UTF-8"?>
<!DOCTYPE svg PUBLIC "-//W3C//DTD SVG 1.1//EN" "http://www.w3.org/Graphics/SVG/1.1/DTD/svg11.dtd">
<svg xmlns="http://www.w3.org/2000/svg" version="1.1" width="230px" height="212px" style="shape-rendering:geometricPrecision; text-rendering:geometricPrecision; image-rendering:optimizeQuality; fill-rule:evenodd; clip-rule:evenodd" xmlns:xlink="http://www.w3.org/1999/xlink">
<g><path style="opacity:1" fill="#334f7b" d="M 96.5,-0.5 C 99.5,-0.5 102.5,-0.5 105.5,-0.5C 128.286,5.15818 138.453,19.8248 136,43.5C 129.805,63.1698 116.305,72.5032 95.5,71.5C 77.9208,67.5801 67.9208,56.5801 65.5,38.5C 65.5531,17.4186 75.8864,4.41862 96.5,-0.5 Z"/></g>
<g><path style="opacity:1" fill="#86a5de" d="M 65.5,38.5 C 67.9208,56.5801 77.9208,67.5801 95.5,71.5C 94.4138,71.62 93.7472,72.2867 93.5,73.5C 94.327,76.7831 94.6604,80.1165 94.5,83.5C 94.5,85.5 94.5,87.5 94.5,89.5C 86.5,89.5 78.5,89.5 70.5,89.5C 70.3354,92.5184 70.502,95.5184 71,98.5C 72,99.1667 73,99.8333 74,100.5C 74.4997,108.159 74.6664,115.826 74.5,123.5C 62.6764,130.288 50.0097,132.621 36.5,130.5C 16.1009,124.101 3.76755,110.435 -0.5,89.5C -0.5,85.5 -0.5,81.5 -0.5,77.5C 5.08262,52.0924 20.9159,38.0924 47,35.5C 52.929,35.8947 58.5957,37.228 64,39.5C 64.3826,38.944 64.8826,38.6107 65.5,38.5 Z"/></g>
<g><path style="opacity:1" fill="#c9bdb6" d="M 153.5,155.5 C 149.833,155.5 146.167,155.5 142.5,155.5C 142.768,153.901 142.434,152.568 141.5,151.5C 141.151,148.01 142.651,145.677 146,144.5C 146.19,134.12 146.69,123.787 147.5,113.5C 147.376,112.893 147.043,112.56 146.5,112.5C 146.666,108.486 146.499,104.486 146,100.5C 142.731,99.1816 139.565,99.1816 136.5,100.5C 135.078,100.75 134.078,101.583 133.5,103C 131.833,103.667 130.167,103.667 128.5,103C 127.865,99.3973 127.198,95.8973 126.5,92.5C 126.5,91.5 126.5,90.5 126.5,89.5C 144.5,89.5 162.5,89.5 180.5,89.5C 180.5,94.1667 180.5,98.8333 180.5,103.5C 178.143,103.663 175.81,103.497 173.5,103C 172.833,102 172.167,101 171.5,100C 167.909,99.2114 164.409,99.3781 161,100.5C 160.167,115.178 160.334,129.845 161.5,144.5C 162.748,145.04 163.915,145.707 165,146.5C 165.498,149.482 165.665,152.482 165.5,155.5C 161.5,155.5 157.5,155.5 153.5,155.5 Z"/></g>
<g><path style="opacity:1" fill="#000000" d="M 128.5,90.5 C 145.5,90.5 162.5,90.5 179.5,90.5C 179.5,94.5 179.5,98.5 179.5,102.5C 176.722,102.978 174.722,101.978 173.5,99.5C 168.88,98.5067 164.214,98.1734 159.5,98.5C 159.333,114.17 159.5,129.837 160,145.5C 163.964,147.189 165.464,150.189 164.5,154.5C 157.5,154.5 150.5,154.5 143.5,154.5C 141.305,150.22 142.471,147.22 147,145.5C 147.544,129.832 148.044,114.166 148.5,98.5C 143.821,98.3342 139.155,98.5008 134.5,99C 133.778,101.741 132.112,102.741 129.5,102C 128.54,98.27 128.207,94.4367 128.5,90.5 Z"/></g>
<g><path style="opacity:1" fill="#000000" d="M 206.5,96.5 C 204.611,97.604 202.945,98.9373 201.5,100.5C 201.5,115.833 201.5,131.167 201.5,146.5C 207.537,146.829 213.537,146.496 219.5,145.5C 220.183,140.814 222.849,138.814 227.5,139.5C 227.5,144.5 227.5,149.5 227.5,154.5C 213.5,154.5 199.5,154.5 185.5,154.5C 184.536,150.189 186.036,147.189 190,145.5C 190.667,130.167 190.667,114.833 190,99.5C 186.036,97.8108 184.536,94.8108 185.5,90.5C 192.5,90.5 199.5,90.5 206.5,90.5C 206.5,92.5 206.5,94.5 206.5,96.5 Z"/></g>
<g><path style="opacity:1" fill="#878584" d="M 206.5,96.5 C 206.5,97.1667 206.833,97.5 207.5,97.5C 206.685,98.8366 205.518,99.8366 204,100.5C 203.5,115.496 203.333,130.496 203.5,145.5C 202.833,130.5 202.167,115.5 201.5,100.5C 202.945,98.9373 204.611,97.604 206.5,96.5 Z"/></g>
<g><path style="opacity:1" fill="#5067a8" d="M 94.5,83.5 C 106.024,83.6778 116.691,86.6778 126.5,92.5C 127.198,95.8973 127.865,99.3973 128.5,103C 130.167,103.667 131.833,103.667 133.5,103C 134.078,101.583 135.078,100.75 136.5,100.5C 140.21,104.208 143.543,108.208 146.5,112.5C 147.043,112.56 147.376,112.893 147.5,113.5C 146.69,123.787 146.19,134.12 146,144.5C 142.651,145.677 141.151,148.01 141.5,151.5C 141.5,153.167 141.5,154.833 141.5,156.5C 144.833,156.5 148.167,156.5 151.5,156.5C 150.424,159.734 149.757,163.068 149.5,166.5C 139.031,189.841 120.864,202.175 95,203.5C 63.3809,200.877 43.7142,184.211 36,153.5C 35.2689,145.798 35.4356,138.131 36.5,130.5C 50.0097,132.621 62.6764,130.288 74.5,123.5C 74.6663,130.508 74.4996,137.508 74,144.5C 73,145.167 72,145.833 71,146.5C 70.502,149.482 70.3354,152.482 70.5,155.5C 82.2144,155.861 93.8811,155.361 105.5,154C 113.841,151.659 119.674,146.493 123,138.5C 124.542,129.896 124.876,121.23 124,112.5C 119.63,97.9758 109.796,90.3092 94.5,89.5C 94.5,87.5 94.5,85.5 94.5,83.5 Z"/></g>
<g><path style="opacity:1" fill="#c9bdb7" d="M 207.5,97.5 C 206.833,97.5 206.5,97.1667 206.5,96.5C 206.5,94.5 206.5,92.5 206.5,90.5C 199.5,90.5 192.5,90.5 185.5,90.5C 184.536,94.8108 186.036,97.8108 190,99.5C 190.667,114.833 190.667,130.167 190,145.5C 186.036,147.189 184.536,150.189 185.5,154.5C 199.5,154.5 213.5,154.5 227.5,154.5C 227.5,149.5 227.5,144.5 227.5,139.5C 222.849,138.814 220.183,140.814 219.5,145.5C 213.537,146.496 207.537,146.829 201.5,146.5C 201.5,131.167 201.5,115.833 201.5,100.5C 202.167,115.5 202.833,130.5 203.5,145.5C 208.179,145.666 212.845,145.499 217.5,145C 218.874,142.417 220.374,139.917 222,137.5C 224.381,138.435 226.881,138.768 229.5,138.5C 229.5,144.167 229.5,149.833 229.5,155.5C 214.5,155.5 199.5,155.5 184.5,155.5C 184.335,152.482 184.502,149.482 185,146.5C 186.085,145.707 187.252,145.04 188.5,144.5C 189.833,129.833 189.833,115.167 188.5,100.5C 187.5,99.8333 186.5,99.1667 185.5,98.5C 184.516,95.5719 184.183,92.5719 184.5,89.5C 192.167,89.5 199.833,89.5 207.5,89.5C 208.497,92.3283 208.497,94.995 207.5,97.5 Z"/></g>
<g><path style="opacity:1" fill="#ccbeb7" d="M 94.5,89.5 C 109.796,90.3092 119.63,97.9758 124,112.5C 124.876,121.23 124.542,129.896 123,138.5C 119.674,146.493 113.841,151.659 105.5,154C 93.8811,155.361 82.2144,155.861 70.5,155.5C 70.3354,152.482 70.502,149.482 71,146.5C 72,145.833 73,145.167 74,144.5C 74.4996,137.508 74.6663,130.508 74.5,123.5C 74.6664,115.826 74.4997,108.159 74,100.5C 73,99.8333 72,99.1667 71,98.5C 70.502,95.5184 70.3354,92.5184 70.5,89.5C 78.5,89.5 86.5,89.5 94.5,89.5 Z"/></g>
<g><path style="opacity:1" fill="#000000" d="M 71.5,90.5 C 80.5062,90.3336 89.5062,90.5002 98.5,91C 116.315,94.4396 124.649,105.273 123.5,123.5C 124.486,141.345 116.152,151.511 98.5,154C 89.5062,154.5 80.5062,154.666 71.5,154.5C 71.3367,152.143 71.5034,149.81 72,147.5C 73,146.833 74,146.167 75,145.5C 75.6667,130.167 75.6667,114.833 75,99.5C 74,98.8333 73,98.1667 72,97.5C 71.5034,95.1902 71.3367,92.8568 71.5,90.5 Z"/></g>
<g><path style="opacity:1" fill="#c6b9b2" d="M 88.5,98.5 C 105.474,98.1443 113.141,106.478 111.5,123.5C 113.385,141.279 105.385,148.946 87.5,146.5C 87.2119,130.465 87.5453,114.465 88.5,98.5 Z"/></g>
<g><path style="opacity:1" fill="#4f608c" d="M 102.5,102.5 C 98.0029,101.945 93.8362,102.611 90,104.5C 89.5001,117.829 89.3334,131.163 89.5,144.5C 92.5,144.5 95.5,144.5 98.5,144.5C 95.3752,145.479 92.0419,145.813 88.5,145.5C 88.214,130.131 88.5474,114.798 89.5,99.5C 94.3118,98.9645 98.6452,99.9645 102.5,102.5 Z"/></g>
<g><path style="opacity:1" fill="#5066a8" d="M 102.5,102.5 C 106.319,104.822 108.819,108.155 110,112.5C 110.876,121.23 110.542,129.896 109,138.5C 106.564,142.45 103.064,144.45 98.5,144.5C 95.5,144.5 92.5,144.5 89.5,144.5C 89.3334,131.163 89.5001,117.829 90,104.5C 93.8362,102.611 98.0029,101.945 102.5,102.5 Z"/></g>
<g><path style="opacity:1" fill="#5e6b94" d="M 141.5,151.5 C 142.434,152.568 142.768,153.901 142.5,155.5C 146.167,155.5 149.833,155.5 153.5,155.5C 152.935,159.537 151.601,163.203 149.5,166.5C 149.757,163.068 150.424,159.734 151.5,156.5C 148.167,156.5 144.833,156.5 141.5,156.5C 141.5,154.833 141.5,153.167 141.5,151.5 Z"/></g>
</svg>
