<?xml version="1.0" encoding="UTF-8"?>
<!DOCTYPE svg PUBLIC "-//W3C//DTD SVG 1.1//EN" "http://www.w3.org/Graphics/SVG/1.1/DTD/svg11.dtd">
<svg xmlns="http://www.w3.org/2000/svg" version="1.1" width="230px" height="212px" style="shape-rendering:geometricPrecision; text-rendering:geometricPrecision; image-rendering:optimizeQuality; fill-rule:evenodd; clip-rule:evenodd" xmlns:xlink="http://www.w3.org/1999/xlink">
<g><path style="opacity:0.975" fill="#324f7b" d="M 130.5,62.5 C 125.21,68.8202 118.544,73.1535 110.5,75.5C 105.153,76.7752 99.8195,76.7752 94.5,75.5C 79.193,71.1922 70.193,61.1922 67.5,45.5C 67.5,44.8333 67.1667,44.5 66.5,44.5C 67.4124,21.2546 79.4124,8.25456 102.5,5.5C 121.262,7.2786 132.762,17.2786 137,35.5C 138.323,45.3962 136.156,54.3962 130.5,62.5 Z"/></g>
<g><path style="opacity:0.982" fill="#86a6df" d="M 66.5,44.5 C 67.1667,44.5 67.5,44.8333 67.5,45.5C 70.193,61.1922 79.193,71.1922 94.5,75.5C 94.8333,76.8333 95.1667,78.1667 95.5,79.5C 95.5,81.1667 95.5,82.8333 95.5,84.5C 95.5,84.8333 95.5,85.1667 95.5,85.5C 87.6096,84.1267 79.9429,84.96 72.5,88C 67.202,91.5959 64.5354,96.5959 64.5,103C 65.807,112.318 67.1403,121.485 68.5,130.5C 67.8333,131.167 67.1667,131.833 66.5,132.5C 65.209,132.263 64.209,132.596 63.5,133.5C 55.5422,135.472 47.5422,135.805 39.5,134.5C 19.9049,130.072 7.73825,118.072 3,98.5C -0.587385,70.4908 10.9126,51.9908 37.5,43C 47.3167,40.7906 56.9833,41.2906 66.5,44.5 Z"/></g>
<g><path style="opacity:0.121" fill="#fefefe" d="M 229.5,118.5 C 229.5,136.167 229.5,153.833 229.5,171.5C 202.556,172.095 175.556,172.428 148.5,172.5C 148.5,171.833 148.5,171.167 148.5,170.5C 149.338,170.158 149.672,169.492 149.5,168.5C 150.404,167.791 150.737,166.791 150.5,165.5C 152.118,162.829 152.785,159.829 152.5,156.5C 156.167,156.5 159.833,156.5 163.5,156.5C 163.5,152.833 163.5,149.167 163.5,145.5C 161.5,145.5 159.5,145.5 157.5,145.5C 157.5,132.5 157.5,119.5 157.5,106.5C 159.833,106.5 162.167,106.5 164.5,106.5C 164.5,109.167 164.5,111.833 164.5,114.5C 168.833,114.5 173.167,114.5 177.5,114.5C 177.823,107.978 177.49,101.645 176.5,95.5C 172.833,95.5 169.167,95.5 165.5,95.5C 152.5,95.5 139.5,95.5 126.5,95.5C 125.041,95.5674 123.708,95.2341 122.5,94.5C 114.359,90.3378 105.693,88.3378 96.5,88.5C 96.7678,86.901 96.4345,85.5676 95.5,84.5C 95.5,82.8333 95.5,81.1667 95.5,79.5C 100.138,79.4719 104.638,80.1385 109,81.5C 109.813,79.5643 110.313,77.5643 110.5,75.5C 118.544,73.1535 125.21,68.8202 130.5,62.5C 140.782,63.8185 150.948,63.8185 161,62.5C 173.824,64.5093 186.658,64.176 199.5,61.5C 206.327,61.8615 212.994,63.0282 219.5,65C 224.346,69.364 226.346,74.864 225.5,81.5C 225.886,87.1756 224.719,92.5089 222,97.5C 221.966,104.247 220.799,110.747 218.5,117C 222.026,118.337 225.692,118.837 229.5,118.5 Z"/></g>
<g><path style="opacity:1" fill="#92aee1" d="M 124.5,77.5 C 126.167,77.5 127.833,77.5 129.5,77.5C 130.656,88.8119 132.656,89.1452 135.5,78.5C 136.689,77.5713 138.022,77.238 139.5,77.5C 138.329,81.5177 138.329,85.5177 139.5,89.5C 138.167,90.8333 136.833,90.8333 135.5,89.5C 136.763,80.3177 136.097,80.3177 133.5,89.5C 132.675,90.3857 131.675,90.719 130.5,90.5C 129.978,87.4318 129.145,84.4318 128,81.5C 127.108,84.4525 127.608,87.1192 129.5,89.5C 127.833,90.8333 126.167,90.8333 124.5,89.5C 125.671,85.5177 125.671,81.5177 124.5,77.5 Z"/></g>
<g><path style="opacity:1" fill="#6f89b7" d="M 160.5,77.5 C 162.465,77.9483 162.798,78.9483 161.5,80.5C 160.614,79.675 160.281,78.675 160.5,77.5 Z"/></g>
<g><path style="opacity:1" fill="#496086" d="M 202.5,79.5 C 202.5,83.5 200.5,85.5 196.5,85.5C 196.421,86.9305 196.754,88.2638 197.5,89.5C 196.167,90.8333 194.833,90.8333 193.5,89.5C 194.833,85.8333 194.833,82.1667 193.5,78.5C 196.768,77.0638 199.768,77.3971 202.5,79.5 Z"/></g>
<g><path style="opacity:1" fill="#4a6087" d="M 202.5,79.5 C 205.141,76.9277 207.974,76.9277 211,79.5C 211.987,83.3482 210.487,85.3482 206.5,85.5C 206.421,86.9305 206.754,88.2638 207.5,89.5C 205.833,90.8333 204.167,90.8333 202.5,89.5C 203.642,87.8832 204.309,86.0499 204.5,84C 204.431,82.0145 203.765,80.5145 202.5,79.5 Z"/></g>
<g><path style="opacity:0.765" fill="#4c638a" d="M 185.5,77.5 C 186.5,77.5 187.5,77.5 188.5,77.5C 189.229,81.6862 190.562,85.6862 192.5,89.5C 191.311,90.4287 189.978,90.762 188.5,90.5C 188.5,89.1667 188.5,87.8333 188.5,86.5C 185.477,86.1052 184.477,87.1052 185.5,89.5C 183.833,90.8333 182.167,90.8333 180.5,89.5C 182.556,85.6672 184.222,81.6672 185.5,77.5 Z"/></g>
<g><path style="opacity:0.151" fill="#e3e6eb" d="M 196.5,79.5 C 197.5,79.5 198.5,79.5 199.5,79.5C 199.5,80.8333 199.5,82.1667 199.5,83.5C 198.5,83.5 197.5,83.5 196.5,83.5C 196.5,82.1667 196.5,80.8333 196.5,79.5 Z"/></g>
<g><path style="opacity:0.105" fill="#f1f2f5" d="M 206.5,79.5 C 210.31,80.7542 210.31,81.7542 206.5,82.5C 206.5,81.5 206.5,80.5 206.5,79.5 Z"/></g>
<g><path style="opacity:0.959" fill="#8faadb" d="M 149.5,77.5 C 150.833,77.5 152.167,77.5 153.5,77.5C 153.5,78.8333 153.5,80.1667 153.5,81.5C 157.976,81.8222 159.476,84.1556 158,88.5C 155.865,90.2785 153.365,90.9452 150.5,90.5C 150.706,86.1018 150.373,81.7685 149.5,77.5 Z"/></g>
<g><path style="opacity:0.156" fill="#eff1f4" d="M 186.5,81.5 C 187.776,82.3864 187.776,83.3864 186.5,84.5C 185.438,83.5754 185.438,82.5754 186.5,81.5 Z"/></g>
<g><path style="opacity:0.89" fill="#9ab4e3" d="M 142.5,81.5 C 147.85,80.8632 150.017,83.1966 149,88.5C 146.333,92.5 143.667,92.5 141,88.5C 140.391,85.9348 140.891,83.6015 142.5,81.5 Z"/></g>
<g><path style="opacity:0.211" fill="#fcfcfe" d="M 143.5,83.5 C 147.972,84.4789 148.472,86.4789 145,89.5C 143.681,87.7505 143.181,85.7505 143.5,83.5 Z"/></g>
<g><path style="opacity:0.212" fill="#fdfdfe" d="M 153.5,83.5 C 156.084,84.0483 157.084,85.715 156.5,88.5C 155.5,88.5 154.5,88.5 153.5,88.5C 153.5,86.8333 153.5,85.1667 153.5,83.5 Z"/></g>
<g><path style="opacity:0.835" fill="#6a86b6" d="M 164.5,77.5 C 165.5,77.5 166.5,77.5 167.5,77.5C 167.234,81.5705 167.567,85.5705 168.5,89.5C 167.167,90.8333 165.833,90.8333 164.5,89.5C 165.76,85.5021 165.76,81.5021 164.5,77.5 Z"/></g>
<g><path style="opacity:0.848" fill="#7e9acc" d="M 159.5,81.5 C 160.5,81.5 161.5,81.5 162.5,81.5C 162.274,84.2492 162.607,86.9159 163.5,89.5C 162.167,90.8333 160.833,90.8333 159.5,89.5C 160.703,86.8401 160.703,84.1735 159.5,81.5 Z"/></g>
<g><path style="opacity:0.949" fill="#728ab3" d="M 171.5,81.5 C 175.5,80.8333 177.167,82.5 176.5,86.5C 169.951,86.9071 169.951,87.9071 176.5,89.5C 174.681,91.9114 172.681,92.078 170.5,90C 169.041,86.9295 169.374,84.0961 171.5,81.5 Z"/></g>
<g><path style="opacity:1" fill="#758cce" d="M 96.5,88.5 C 105.693,88.3378 114.359,90.3378 122.5,94.5C 123.171,95.8471 123.171,97.0138 122.5,98C 116.27,98.9547 110.603,97.6214 105.5,94C 102.522,93.304 99.5219,92.804 96.5,92.5C 96.5,91.1667 96.5,89.8333 96.5,88.5 Z"/></g>
<g><path style="opacity:1" fill="#c1e1ff" d="M 95.5,90.5 C 95.5,92.1667 95.5,93.8333 95.5,95.5C 89.1667,95.5 82.8333,95.5 76.5,95.5C 76.1667,95.5 75.8333,95.5 75.5,95.5C 76.343,93.8267 77.6763,92.66 79.5,92C 84.7539,90.7288 90.0873,90.2288 95.5,90.5 Z"/></g>
<g><path style="opacity:1" fill="#acccfe" d="M 95.5,84.5 C 96.4345,85.5676 96.7678,86.901 96.5,88.5C 95.6618,88.8417 95.3284,89.5084 95.5,90.5C 90.0873,90.2288 84.7539,90.7288 79.5,92C 77.6763,92.66 76.343,93.8267 75.5,95.5C 73.6565,97.2789 72.9898,99.6122 73.5,102.5C 73.1642,110.646 73.1642,118.979 73.5,127.5C 73.5,127.833 73.5,128.167 73.5,128.5C 73.1667,128.5 72.8333,128.5 72.5,128.5C 71.3899,120.665 70.3899,112.665 69.5,104.5C 68.0556,97.1335 70.7223,91.9668 77.5,89C 83.8696,88.3625 89.8696,87.1958 95.5,85.5C 95.5,85.1667 95.5,84.8333 95.5,84.5 Z"/></g>
<g><path style="opacity:1" fill="#415e8b" d="M 205.5,106.5 C 203.5,106.5 201.5,106.5 199.5,106.5C 199.5,113.833 199.5,121.167 199.5,128.5C 195.5,124.833 191.5,121.167 187.5,117.5C 187.5,113.833 187.5,110.167 187.5,106.5C 185.5,106.5 183.5,106.5 181.5,106.5C 181.5,102.833 181.5,99.1667 181.5,95.5C 189.5,95.5 197.5,95.5 205.5,95.5C 205.5,99.1667 205.5,102.833 205.5,106.5 Z"/></g>
<g><path style="opacity:1" fill="#6a89be" d="M 76.5,95.5 C 82.8333,95.5 89.1667,95.5 95.5,95.5C 111.955,98.4572 120.955,108.291 122.5,125C 122.36,129.724 121.36,134.224 119.5,138.5C 116.167,135.5 112.833,132.5 109.5,129.5C 110.141,122.931 108.641,116.931 105,111.5C 101.124,107.156 96.2912,105.489 90.5,106.5C 89.7784,106.918 89.2784,107.584 89,108.5C 84.6298,104.298 80.4632,99.9645 76.5,95.5 Z"/></g>
<g><path style="opacity:1" fill="#5b7aab" d="M 126.5,95.5 C 139.5,95.5 152.5,95.5 165.5,95.5C 160.152,97.3308 154.819,99.4974 149.5,102C 148.128,103.242 147.128,104.742 146.5,106.5C 149.521,110.188 152.854,113.521 156.5,116.5C 156.666,126.172 156.5,135.839 156,145.5C 152.631,141.963 149.131,138.629 145.5,135.5C 145.827,125.652 145.494,115.986 144.5,106.5C 142.265,106.205 140.265,106.539 138.5,107.5C 138.5,109.833 138.5,112.167 138.5,114.5C 134.5,114.5 130.5,114.5 126.5,114.5C 126.5,108.167 126.5,101.833 126.5,95.5 Z"/></g>
<g><path style="opacity:1" fill="#4f6d9b" d="M 165.5,95.5 C 169.167,95.5 172.833,95.5 176.5,95.5C 176.5,101.5 176.5,107.5 176.5,113.5C 172.833,113.5 169.167,113.5 165.5,113.5C 165.802,110.941 165.468,108.607 164.5,106.5C 162.167,106.5 159.833,106.5 157.5,106.5C 156.521,109.625 156.187,112.958 156.5,116.5C 152.854,113.521 149.521,110.188 146.5,106.5C 147.128,104.742 148.128,103.242 149.5,102C 154.819,99.4974 160.152,97.3308 165.5,95.5 Z"/></g>
<g><path style="opacity:0.801" fill="#798cad" d="M 176.5,95.5 C 177.49,101.645 177.823,107.978 177.5,114.5C 173.167,114.5 168.833,114.5 164.5,114.5C 164.5,111.833 164.5,109.167 164.5,106.5C 165.468,108.607 165.802,110.941 165.5,113.5C 169.167,113.5 172.833,113.5 176.5,113.5C 176.5,107.5 176.5,101.5 176.5,95.5 Z"/></g>
<g><path style="opacity:1" fill="#9dbdf6" d="M 95.5,85.5 C 89.8696,87.1958 83.8696,88.3625 77.5,89C 70.7223,91.9668 68.0556,97.1335 69.5,104.5C 70.3899,112.665 71.3899,120.665 72.5,128.5C 71.8333,129.167 71.1667,129.833 70.5,130.5C 69.8333,130.5 69.1667,130.5 68.5,130.5C 67.1403,121.485 65.807,112.318 64.5,103C 64.5354,96.5959 67.202,91.5959 72.5,88C 79.9429,84.96 87.6096,84.1267 95.5,85.5 Z"/></g>
<g><path style="opacity:1" fill="#97aeef" d="M 96.5,88.5 C 96.5,89.8333 96.5,91.1667 96.5,92.5C 99.5219,92.804 102.522,93.304 105.5,94C 110.603,97.6214 116.27,98.9547 122.5,98C 123.171,97.0138 123.171,95.8471 122.5,94.5C 123.708,95.2341 125.041,95.5674 126.5,95.5C 126.5,101.833 126.5,108.167 126.5,114.5C 130.5,114.5 134.5,114.5 138.5,114.5C 138.5,112.167 138.5,109.833 138.5,107.5C 140.55,109.237 142.383,111.237 144,113.5C 144.497,111.19 144.663,108.857 144.5,106.5C 145.494,115.986 145.827,125.652 145.5,135.5C 145.5,138.833 145.5,142.167 145.5,145.5C 143.5,145.5 141.5,145.5 139.5,145.5C 141.82,137.206 141.986,128.872 140,120.5C 137.398,116.788 133.898,115.622 129.5,117C 127.962,118.932 126.795,121.099 126,123.5C 124.956,129.676 123.289,135.676 121,141.5C 117.843,146.317 114.343,150.817 110.5,155C 107.141,156.047 104.141,157.547 101.5,159.5C 95.1579,159.666 88.8246,159.5 82.5,159C 80.9336,158.392 79.6002,157.558 78.5,156.5C 85.6866,156.825 92.6866,156.491 99.5,155.5C 109.376,153.568 116.043,147.901 119.5,138.5C 121.36,134.224 122.36,129.724 122.5,125C 120.955,108.291 111.955,98.4572 95.5,95.5C 95.5,93.8333 95.5,92.1667 95.5,90.5C 95.3284,89.5084 95.6618,88.8417 96.5,88.5 Z"/></g>
<g><path style="opacity:0.432" fill="#fdfdff" d="M 138.5,107.5 C 140.265,106.539 142.265,106.205 144.5,106.5C 144.663,108.857 144.497,111.19 144,113.5C 142.383,111.237 140.55,109.237 138.5,107.5 Z"/></g>
<g><path style="opacity:1" fill="#c4e3fb" d="M 73.5,102.5 C 73.5,103.833 73.5,105.167 73.5,106.5C 75.1667,106.5 76.8333,106.5 78.5,106.5C 78.5,112.833 78.5,119.167 78.5,125.5C 76.9505,126.441 75.2838,127.107 73.5,127.5C 73.1642,118.979 73.1642,110.646 73.5,102.5 Z"/></g>
<g><path style="opacity:1" fill="#839add" d="M 139.5,145.5 C 139.5,149.167 139.5,152.833 139.5,156.5C 138.21,155.942 137.377,154.942 137,153.5C 136.501,148.511 136.334,143.511 136.5,138.5C 137.268,137.737 137.768,136.737 138,135.5C 138.667,131.167 138.667,126.833 138,122.5C 135.294,119.022 132.294,118.689 129,121.5C 128.419,131.917 125.085,141.251 119,149.5C 114.37,155.062 108.537,158.395 101.5,159.5C 104.141,157.547 107.141,156.047 110.5,155C 114.343,150.817 117.843,146.317 121,141.5C 123.289,135.676 124.956,129.676 126,123.5C 126.795,121.099 127.962,118.932 129.5,117C 133.898,115.622 137.398,116.788 140,120.5C 141.986,128.872 141.82,137.206 139.5,145.5 Z"/></g>
<g><path style="opacity:1" fill="#adc4fb" d="M 90.5,106.5 C 96.2912,105.489 101.124,107.156 105,111.5C 108.641,116.931 110.141,122.931 109.5,129.5C 107.977,140.698 101.644,146.032 90.5,145.5C 90.5,141.833 90.5,138.167 90.5,134.5C 96.7991,141.713 102.299,141.047 107,132.5C 107.789,126.763 107.456,121.097 106,115.5C 100.822,110.37 95.6555,110.37 90.5,115.5C 90.5,112.5 90.5,109.5 90.5,106.5 Z"/></g>
<g><path style="opacity:1" fill="#768dd0" d="M 136.5,138.5 C 136.665,134.818 136.499,131.152 136,127.5C 133.771,124.844 131.938,125.177 130.5,128.5C 124.808,156.319 107.808,167.819 79.5,163C 75.6667,160.5 72.5,157.333 70,153.5C 69.5229,145.822 69.6895,138.155 70.5,130.5C 71.1667,129.833 71.8333,129.167 72.5,128.5C 72.8333,128.5 73.1667,128.5 73.5,128.5C 73.8353,137.648 73.8353,146.982 73.5,156.5C 75.1667,156.5 76.8333,156.5 78.5,156.5C 79.6002,157.558 80.9336,158.392 82.5,159C 88.8246,159.5 95.1579,159.666 101.5,159.5C 108.537,158.395 114.37,155.062 119,149.5C 125.085,141.251 128.419,131.917 129,121.5C 132.294,118.689 135.294,119.022 138,122.5C 138.667,126.833 138.667,131.167 138,135.5C 137.768,136.737 137.268,137.737 136.5,138.5 Z"/></g>
<g><path style="opacity:0.505" fill="#afb8ca" d="M 205.5,106.5 C 204.081,107.451 202.415,107.784 200.5,107.5C 200.5,120.167 200.5,132.833 200.5,145.5C 199.511,140.025 199.178,134.358 199.5,128.5C 199.5,121.167 199.5,113.833 199.5,106.5C 201.5,106.5 203.5,106.5 205.5,106.5 Z"/></g>
<g><path style="opacity:1" fill="#687ec1" d="M 136.5,138.5 C 136.334,143.511 136.501,148.511 137,153.5C 137.377,154.942 138.21,155.942 139.5,156.5C 141.433,160.757 144.766,163.09 149.5,163.5C 150.298,163.957 150.631,164.624 150.5,165.5C 150.737,166.791 150.404,167.791 149.5,168.5C 149.586,167.504 149.252,166.671 148.5,166C 144.178,165.755 140.178,164.588 136.5,162.5C 133.251,158.046 130.417,153.379 128,148.5C 122.566,152.26 117.4,156.426 112.5,161C 105.657,164.735 98.3235,166.235 90.5,165.5C 68.9961,165.825 61.3294,155.658 67.5,135C 67.472,133.93 67.1386,133.097 66.5,132.5C 67.1667,131.833 67.8333,131.167 68.5,130.5C 69.1667,130.5 69.8333,130.5 70.5,130.5C 69.6895,138.155 69.5229,145.822 70,153.5C 72.5,157.333 75.6667,160.5 79.5,163C 107.808,167.819 124.808,156.319 130.5,128.5C 131.938,125.177 133.771,124.844 136,127.5C 136.499,131.152 136.665,134.818 136.5,138.5 Z"/></g>
<g><path style="opacity:0.972" fill="#5067aa" d="M 63.5,133.5 C 61.7391,141.414 61.2391,149.414 62,157.5C 63.4056,162.573 66.5723,166.073 71.5,168C 84.5771,171.396 97.5771,171.062 110.5,167C 115.477,164.267 120.31,161.434 125,158.5C 128.48,160.98 131.647,163.813 134.5,167C 138.978,168.913 143.645,170.08 148.5,170.5C 148.5,171.167 148.5,171.833 148.5,172.5C 130.873,201.298 105.873,210.465 73.5,200C 46.6491,186.294 35.3157,164.461 39.5,134.5C 47.5422,135.805 55.5422,135.472 63.5,133.5 Z"/></g>
<g><path style="opacity:1" fill="#4c6998" d="M 187.5,117.5 C 191.5,121.167 195.5,124.833 199.5,128.5C 199.178,134.358 199.511,140.025 200.5,145.5C 204.514,145.666 208.514,145.499 212.5,145C 213,144.5 213.5,144 214,143.5C 214.498,140.183 214.665,136.85 214.5,133.5C 218.5,133.5 222.5,133.5 226.5,133.5C 226.5,141.167 226.5,148.833 226.5,156.5C 211.5,156.5 196.5,156.5 181.5,156.5C 181.5,152.833 181.5,149.167 181.5,145.5C 183.5,145.5 185.5,145.5 187.5,145.5C 187.5,136.167 187.5,126.833 187.5,117.5 Z"/></g>
<g><path style="opacity:1" fill="#89a7e2" d="M 78.5,125.5 C 78.3345,129.514 78.5012,133.514 79,137.5C 84.8333,143.333 90.6667,149.167 96.5,155C 97.448,155.483 98.448,155.649 99.5,155.5C 92.6866,156.491 85.6866,156.825 78.5,156.5C 76.8333,156.5 75.1667,156.5 73.5,156.5C 73.8353,146.982 73.8353,137.648 73.5,128.5C 73.5,128.167 73.5,127.833 73.5,127.5C 75.2838,127.107 76.9505,126.441 78.5,125.5 Z"/></g>
<g><path style="opacity:1" fill="#a0b7fa" d="M 90.5,134.5 C 90.5,128.167 90.5,121.833 90.5,115.5C 95.6555,110.37 100.822,110.37 106,115.5C 107.456,121.097 107.789,126.763 107,132.5C 102.299,141.047 96.7991,141.713 90.5,134.5 Z"/></g>
<g><path style="opacity:1" fill="#8fa6e9" d="M 96.5,114.5 C 103.539,115.042 106.872,118.876 106.5,126C 106.333,127.833 106.167,129.667 106,131.5C 103.487,133.423 100.82,135.089 98,136.5C 92.9319,135.723 90.7652,132.723 91.5,127.5C 91.209,122.267 92.8757,117.933 96.5,114.5 Z"/></g>
<g><path style="opacity:1" fill="#6886ba" d="M 157.5,106.5 C 157.5,119.5 157.5,132.5 157.5,145.5C 159.5,145.5 161.5,145.5 163.5,145.5C 163.5,149.167 163.5,152.833 163.5,156.5C 159.833,156.5 156.167,156.5 152.5,156.5C 148.167,156.5 143.833,156.5 139.5,156.5C 139.5,152.833 139.5,149.167 139.5,145.5C 141.5,145.5 143.5,145.5 145.5,145.5C 145.5,142.167 145.5,138.833 145.5,135.5C 149.131,138.629 152.631,141.963 156,145.5C 156.5,135.839 156.666,126.172 156.5,116.5C 156.187,112.958 156.521,109.625 157.5,106.5 Z"/></g>
<g><path style="opacity:1" fill="#7d9cd4" d="M 75.5,95.5 C 75.8333,95.5 76.1667,95.5 76.5,95.5C 80.4632,99.9645 84.6298,104.298 89,108.5C 89.2784,107.584 89.7784,106.918 90.5,106.5C 90.5,109.5 90.5,112.5 90.5,115.5C 90.5,121.833 90.5,128.167 90.5,134.5C 90.5,138.167 90.5,141.833 90.5,145.5C 101.644,146.032 107.977,140.698 109.5,129.5C 112.833,132.5 116.167,135.5 119.5,138.5C 116.043,147.901 109.376,153.568 99.5,155.5C 98.448,155.649 97.448,155.483 96.5,155C 90.6667,149.167 84.8333,143.333 79,137.5C 78.5012,133.514 78.3345,129.514 78.5,125.5C 78.5,119.167 78.5,112.833 78.5,106.5C 76.8333,106.5 75.1667,106.5 73.5,106.5C 73.5,105.167 73.5,103.833 73.5,102.5C 72.9898,99.6122 73.6565,97.2789 75.5,95.5 Z"/></g>
<g><path style="opacity:1" fill="#5a71b4" d="M 66.5,132.5 C 67.1386,133.097 67.472,133.93 67.5,135C 61.3294,155.658 68.9961,165.825 90.5,165.5C 98.3235,166.235 105.657,164.735 112.5,161C 117.4,156.426 122.566,152.26 128,148.5C 130.417,153.379 133.251,158.046 136.5,162.5C 140.178,164.588 144.178,165.755 148.5,166C 149.252,166.671 149.586,167.504 149.5,168.5C 149.672,169.492 149.338,170.158 148.5,170.5C 143.645,170.08 138.978,168.913 134.5,167C 131.647,163.813 128.48,160.98 125,158.5C 120.31,161.434 115.477,164.267 110.5,167C 97.5771,171.062 84.5771,171.396 71.5,168C 66.5723,166.073 63.4056,162.573 62,157.5C 61.2391,149.414 61.7391,141.414 63.5,133.5C 64.209,132.596 65.209,132.263 66.5,132.5 Z"/></g>
<g><path style="opacity:1" fill="#7f96d8" d="M 139.5,156.5 C 143.833,156.5 148.167,156.5 152.5,156.5C 152.785,159.829 152.118,162.829 150.5,165.5C 150.631,164.624 150.298,163.957 149.5,163.5C 144.766,163.09 141.433,160.757 139.5,156.5 Z"/></g>
</svg>
