<?xml version="1.0" standalone="no"?>
<!DOCTYPE svg PUBLIC "-//W3C//DTD SVG 20010904//EN"
 "http://www.w3.org/TR/2001/REC-SVG-20010904/DTD/svg10.dtd">
<svg version="1.0" xmlns="http://www.w3.org/2000/svg"
 width="230.000000pt" height="212.000000pt" viewBox="0 0 230.000000 212.000000"
 preserveAspectRatio="xMidYMid meet">

<g transform="translate(0.000000,212.000000) scale(0.100000,-0.100000)"
fill="#000000" stroke="none">
<path d="M883 2089 c-70 -27 -152 -103 -188 -176 -27 -53 -30 -67 -30 -158 0
-91 3 -105 30 -158 31 -63 102 -134 161 -162 20 -9 65 -22 100 -28 155 -27
309 54 380 198 26 54 29 70 29 155 0 89 -2 99 -34 158 -43 78 -115 144 -187
171 -73 28 -189 28 -261 0z"/>
<path d="M960 1266 c0 -8 -2 -20 -5 -28 -4 -9 15 -18 66 -30 92 -22 155 -67
194 -138 29 -53 30 -59 30 -190 0 -148 -11 -184 -72 -242 -61 -58 -112 -72
-295 -76 l-168 -4 0 45 c0 36 4 49 20 57 18 10 20 21 20 116 0 58 -3 104 -7
102 -129 -65 -202 -83 -304 -75 l-66 6 -7 -46 c-34 -251 100 -504 325 -611 98
-47 162 -62 264 -62 102 0 166 15 264 62 145 69 269 217 309 371 l10 37 -53 0
-53 0 -7 37 c-6 32 -3 40 18 58 24 20 24 21 29 245 2 124 2 194 -1 155 -5 -63
-7 -68 -19 -48 -6 12 -30 42 -52 68 -37 43 -40 44 -50 25 -8 -15 -19 -20 -38
-18 -25 3 -27 7 -30 54 l-3 52 -57 25 c-109 49 -262 79 -262 53z"/>
<path d="M703 1170 c0 -25 2 -35 4 -22 2 12 2 32 0 45 -2 12 -4 2 -4 -23z"/>
<path d="M2071 1137 c-13 -21 -12 -21 5 -5 10 10 16 20 13 22 -3 3 -11 -5 -18
-17z"/>
<path d="M908 1077 c-15 -35 -18 -74 -18 -230 l0 -187 43 0 c63 0 110 16 142
50 28 29 30 36 33 135 3 58 1 121 -2 140 -13 65 -94 135 -158 135 -18 0 -27
-10 -40 -43z"/>
</g>
</svg>
