<?xml version="1.0" encoding="UTF-8"?>
<!DOCTYPE svg PUBLIC "-//W3C//DTD SVG 1.1//EN" "http://www.w3.org/Graphics/SVG/1.1/DTD/svg11.dtd">
<svg xmlns="http://www.w3.org/2000/svg" version="1.1" width="108px" height="108px" style="shape-rendering:geometricPrecision; text-rendering:geometricPrecision; image-rendering:optimizeQuality; fill-rule:evenodd; clip-rule:evenodd" xmlns:xlink="http://www.w3.org/1999/xlink">
<g><path style="opacity:0.924" fill="#c9cbcd" d="M 63.5,86.5 C 62.8333,86.5 62.5,86.8333 62.5,87.5C 61.8333,87.5 61.5,87.8333 61.5,88.5C 60.8333,88.5 60.5,88.8333 60.5,89.5C 59.8333,89.5 59.5,89.8333 59.5,90.5C 58.8333,90.5 58.5,90.8333 58.5,91.5C 57.8333,91.5 57.5,91.8333 57.5,92.5C 56.5084,92.3284 55.8417,92.6618 55.5,93.5C 54.1667,93.5 52.8333,93.5 51.5,93.5C 51.1583,92.6618 50.4916,92.3284 49.5,92.5C 49.5,91.8333 49.1667,91.5 48.5,91.5C 48.5,90.8333 48.1667,90.5 47.5,90.5C 47.5,89.8333 47.1667,89.5 46.5,89.5C 46.5,88.8333 46.1667,88.5 45.5,88.5C 45.5,87.8333 45.1667,87.5 44.5,87.5C 44.5,86.8333 44.1667,86.5 43.5,86.5C 32.7639,75.5651 25.5973,62.5651 22,47.5C 18.5712,28.1834 25.7379,14.6834 43.5,7C 64.5011,2.57544 78.3344,10.4088 85,30.5C 86.816,46.236 83.1493,60.5693 74,73.5C 70.287,77.7077 66.787,82.041 63.5,86.5 Z M 47.5,18.5 C 62.5725,16.5304 71.2392,23.0304 73.5,38C 71.1946,51.4898 63.1946,57.8231 49.5,57C 35.7266,51.9515 31.2266,42.4515 36,28.5C 38.8178,23.8388 42.6511,20.5055 47.5,18.5 Z"/></g>
<g><path style="opacity:0.855" fill="#c9cbcd" d="M 43.5,86.5 C 44.1667,86.5 44.5,86.8333 44.5,87.5C 45.1667,87.5 45.5,87.8333 45.5,88.5C 46.1667,88.5 46.5,88.8333 46.5,89.5C 47.1667,89.5 47.5,89.8333 47.5,90.5C 48.1667,90.5 48.5,90.8333 48.5,91.5C 49.1667,91.5 49.5,91.8333 49.5,92.5C 49.8417,93.3382 50.5084,93.6716 51.5,93.5C 52.8333,94.8333 54.1667,94.8333 55.5,93.5C 56.4916,93.6716 57.1583,93.3382 57.5,92.5C 58.1667,92.5 58.5,92.1667 58.5,91.5C 59.1667,91.5 59.5,91.1667 59.5,90.5C 60.1667,90.5 60.5,90.1667 60.5,89.5C 61.1667,89.5 61.5,89.1667 61.5,88.5C 62.1667,88.5 62.5,88.1667 62.5,87.5C 63.1667,87.5 63.5,87.1667 63.5,86.5C 67.4342,87.2168 70.9342,88.8834 74,91.5C 74.1343,96.3808 71.6343,99.2141 66.5,100C 57.8333,102 49.1667,102 40.5,100C 35.3657,99.2141 32.8657,96.3808 33,91.5C 36.0658,88.8834 39.5658,87.2168 43.5,86.5 Z"/></g>
</svg>
