<?xml version="1.0" encoding="UTF-8"?>
<!DOCTYPE svg PUBLIC "-//W3C//DTD SVG 1.1//EN" "http://www.w3.org/Graphics/SVG/1.1/DTD/svg11.dtd">
<svg xmlns="http://www.w3.org/2000/svg" version="1.1" width="88px" height="92px" style="shape-rendering:geometricPrecision; text-rendering:geometricPrecision; image-rendering:optimizeQuality; fill-rule:evenodd; clip-rule:evenodd" xmlns:xlink="http://www.w3.org/1999/xlink">
<g><path style="opacity:0.647" fill="#c9cbcd" d="M 34.5,3.5 C 36.6282,2.37086 38.9615,2.20419 41.5,3C 39.1902,3.49665 36.8568,3.66331 34.5,3.5 Z"/></g>
<g><path style="opacity:0.953" fill="#c9cbcd" d="M 46.5,2.5 C 47.8333,3.16667 47.8333,3.16667 46.5,2.5 Z"/></g>
<g><path style="opacity:0.437" fill="#c9cbcd" d="M 53.5,3.5 C 51.8008,3.66018 50.1341,3.49351 48.5,3C 50.3869,2.22039 52.0536,2.38705 53.5,3.5 Z"/></g>
<g><path style="opacity:0.575" fill="#c9cbcd" d="M 30.5,4.5 C 31.5676,3.56552 32.901,3.23219 34.5,3.5C 33.4324,4.43448 32.099,4.76781 30.5,4.5 Z"/></g>
<g><path style="opacity:0.592" fill="#c9cbcd" d="M 53.5,3.5 C 54.791,3.26269 55.791,3.59603 56.5,4.5C 55.209,4.73731 54.209,4.40397 53.5,3.5 Z"/></g>
<g><path style="opacity:0.486" fill="#c9cbcd" d="M 27.5,5.5 C 28.209,4.59603 29.209,4.26269 30.5,4.5C 29.791,5.40397 28.791,5.73731 27.5,5.5 Z"/></g>
<g><path style="opacity:0.639" fill="#c9cbcd" d="M 56.5,4.5 C 57.791,4.26269 58.791,4.59603 59.5,5.5C 58.209,5.73731 57.209,5.40397 56.5,4.5 Z"/></g>
<g><path style="opacity:0.512" fill="#c9cbcd" d="M 25.5,6.5 C 25.8417,5.66175 26.5084,5.32842 27.5,5.5C 27.1583,6.33825 26.4916,6.67158 25.5,6.5 Z"/></g>
<g><path style="opacity:0.731" fill="#c9cbcd" d="M 59.5,5.5 C 60.4916,5.32842 61.1583,5.66175 61.5,6.5C 60.5084,6.67158 59.8417,6.33825 59.5,5.5 Z"/></g>
<g><path style="opacity:0.567" fill="#c9cbcd" d="M 23.5,7.5 C 23.8417,6.66175 24.5084,6.32842 25.5,6.5C 25.1583,7.33825 24.4916,7.67158 23.5,7.5 Z"/></g>
<g><path style="opacity:0.532" fill="#c9cbcd" d="M 61.5,6.5 C 64.089,6.46095 66.089,7.46095 67.5,9.5C 65.1815,9.00751 63.1815,8.00751 61.5,6.5 Z"/></g>
<g><path style="opacity:0.525" fill="#c9cbcd" d="M 21.5,8.5 C 21.8417,7.66175 22.5084,7.32842 23.5,7.5C 23.1583,8.33825 22.4916,8.67158 21.5,8.5 Z"/></g>
<g><path style="opacity:0.481" fill="#c9cbcd" d="M 21.5,8.5 C 21.0269,9.90632 20.0269,10.573 18.5,10.5C 18.9731,9.09368 19.9731,8.42702 21.5,8.5 Z"/></g>
<g><path style="opacity:0.71" fill="#c9cbcd" d="M 67.5,9.5 C 68.1667,9.5 68.5,9.83333 68.5,10.5C 68.1667,10.1667 67.8333,9.83333 67.5,9.5 Z"/></g>
<g><path style="opacity:0.655" fill="#c9cbcd" d="M 18.5,10.5 C 17.8333,11.1667 17.8333,11.1667 18.5,10.5 Z"/></g>
<g><path style="opacity:0.553" fill="#c9cbcd" d="M 68.5,10.5 C 69.4916,10.3284 70.1583,10.6618 70.5,11.5C 69.5084,11.6716 68.8417,11.3382 68.5,10.5 Z"/></g>
<g><path style="opacity:0.439" fill="#c9cbcd" d="M 15.5,12.5 C 15.8417,11.6618 16.5084,11.3284 17.5,11.5C 17.1583,12.3382 16.4916,12.6716 15.5,12.5 Z"/></g>
<g><path style="opacity:0.373" fill="#c9cbcd" d="M 70.5,11.5 C 71.1667,11.5 71.5,11.8333 71.5,12.5C 71.1667,12.1667 70.8333,11.8333 70.5,11.5 Z"/></g>
<g><path style="opacity:0.443" fill="#c9cbcd" d="M 15.5,12.5 C 15.5,13.8333 14.8333,14.5 13.5,14.5C 13.8333,13.5 14.5,12.8333 15.5,12.5 Z"/></g>
<g><path style="opacity:0.433" fill="#c9cbcd" d="M 71.5,12.5 C 72.8333,12.5 73.5,13.1667 73.5,14.5C 72.5,14.1667 71.8333,13.5 71.5,12.5 Z"/></g>
<g><path style="opacity:0.18" fill="#c9cbcd" d="M 13.5,14.5 C 12.8333,15.1667 12.8333,15.1667 13.5,14.5 Z"/></g>
<g><path style="opacity:0.43" fill="#c9cbcd" d="M 73.5,14.5 C 74.8333,14.5 75.5,15.1667 75.5,16.5C 74.5,16.1667 73.8333,15.5 73.5,14.5 Z"/></g>
<g><path style="opacity:0.527" fill="#c9cbcd" d="M 12.5,15.5 C 12.573,17.0269 11.9063,18.0269 10.5,18.5C 10.427,16.9731 11.0937,15.9731 12.5,15.5 Z"/></g>
<g><path style="opacity:0.988" fill="#c9cbcd" d="M 76.5,72.5 C 75.1667,72.8333 75.1667,73.1667 76.5,73.5C 68.3222,84.0024 57.4889,89.0024 44,88.5C 29.1337,89.3162 17.6337,83.6495 9.5,71.5C 10.1174,71.6107 10.6174,71.944 11,72.5C 14.8853,61.1146 22.3853,53.1146 33.5,48.5C 25.601,40.8007 24.4344,32.134 30,22.5C 39.6597,14.2669 48.993,14.6002 58,23.5C 63.3505,33.0927 61.8505,41.426 53.5,48.5C 65.2995,52.631 72.9661,60.631 76.5,72.5 Z"/></g>
<g><path style="opacity:0.576" fill="#c9cbcd" d="M 75.5,16.5 C 76.1667,16.5 76.5,16.8333 76.5,17.5C 76.1667,17.1667 75.8333,16.8333 75.5,16.5 Z"/></g>
<g><path style="opacity:0.475" fill="#c9cbcd" d="M 76.5,17.5 C 77.1667,17.5 77.5,17.8333 77.5,18.5C 77.1667,18.1667 76.8333,17.8333 76.5,17.5 Z"/></g>
<g><path style="opacity:0.851" fill="#c9cbcd" d="M 10.5,18.5 C 9.83333,19.1667 9.83333,19.1667 10.5,18.5 Z"/></g>
<g><path style="opacity:0.551" fill="#c9cbcd" d="M 77.5,18.5 C 78.3382,18.8417 78.6716,19.5084 78.5,20.5C 77.6618,20.1583 77.3284,19.4916 77.5,18.5 Z"/></g>
<g><path style="opacity:0.533" fill="#c9cbcd" d="M 9.5,19.5 C 8.83333,20.1667 8.83333,20.1667 9.5,19.5 Z"/></g>
<g><path style="opacity:0.525" fill="#c9cbcd" d="M 8.5,20.5 C 8.67158,21.4916 8.33825,22.1583 7.5,22.5C 7.32842,21.5084 7.66175,20.8417 8.5,20.5 Z"/></g>
<g><path style="opacity:0.722" fill="#c9cbcd" d="M 78.5,20.5 C 79.1667,20.5 79.5,20.8333 79.5,21.5C 79.1667,21.1667 78.8333,20.8333 78.5,20.5 Z"/></g>
<g><path style="opacity:0.302" fill="#c9cbcd" d="M 79.5,21.5 C 80.8333,22.1667 80.8333,22.1667 79.5,21.5 Z"/></g>
<g><path style="opacity:0.639" fill="#c9cbcd" d="M 7.5,22.5 C 6.83333,23.1667 6.83333,23.1667 7.5,22.5 Z"/></g>
<g><path style="opacity:0.459" fill="#c9cbcd" d="M 6.5,23.5 C 6.67158,24.4916 6.33825,25.1583 5.5,25.5C 5.32842,24.5084 5.66175,23.8417 6.5,23.5 Z"/></g>
<g><path style="opacity:0.741" fill="#c9cbcd" d="M 81.5,24.5 C 80.8333,23.1667 80.8333,23.1667 81.5,24.5 Z"/></g>
<g><path style="opacity:0.449" fill="#c9cbcd" d="M 81.5,24.5 C 82.525,24.8966 82.6917,25.5632 82,26.5C 81.5357,25.9056 81.369,25.2389 81.5,24.5 Z"/></g>
<g><path style="opacity:0.445" fill="#c9cbcd" d="M 5.5,25.5 C 5.67158,26.4916 5.33825,27.1583 4.5,27.5C 4.32842,26.5084 4.66175,25.8417 5.5,25.5 Z"/></g>
<g><path style="opacity:0.562" fill="#c9cbcd" d="M 4.5,27.5 C 4.73731,28.791 4.40397,29.791 3.5,30.5C 3.26269,29.209 3.59603,28.209 4.5,27.5 Z"/></g>
<g><path style="opacity:0.624" fill="#c9cbcd" d="M 82.5,27.5 C 84.2726,28.3143 84.7726,29.6476 84,31.5C 83.2086,30.255 82.7086,28.9217 82.5,27.5 Z"/></g>
<g><path style="opacity:0.563" fill="#c9cbcd" d="M 3.5,30.5 C 3.67158,31.4916 3.33825,32.1583 2.5,32.5C 2.32842,31.5084 2.66175,30.8417 3.5,30.5 Z"/></g>
<g><path style="opacity:0.522" fill="#c9cbcd" d="M 2.5,32.5 C 2.65668,33.8734 2.49001,35.2068 2,36.5C 1.23502,34.9343 1.40168,33.6009 2.5,32.5 Z"/></g>
<g><path style="opacity:0.78" fill="#c9cbcd" d="M 85.5,34.5 C 84.475,34.1034 84.3083,33.4368 85,32.5C 85.4643,33.0944 85.631,33.7611 85.5,34.5 Z"/></g>
<g><path style="opacity:0.645" fill="#c9cbcd" d="M 85.5,34.5 C 86.6225,36.2884 86.7891,38.2884 86,40.5C 85.5045,38.5273 85.3379,36.5273 85.5,34.5 Z"/></g>
<g><path style="opacity:0.597" fill="#c9cbcd" d="M 0.5,37.5 C 1.61295,38.9464 1.77961,40.6131 1,42.5C 0.506489,40.8659 0.339822,39.1992 0.5,37.5 Z"/></g>
<g><path style="opacity:0.633" fill="#c9cbcd" d="M 0.5,48.5 C 1.61295,49.9464 1.77961,51.6131 1,53.5C 0.506489,51.8659 0.339822,50.1992 0.5,48.5 Z"/></g>
<g><path style="opacity:0.673" fill="#c9cbcd" d="M 85.5,56.5 C 85.3379,54.4727 85.5045,52.4727 86,50.5C 86.7891,52.7116 86.6225,54.7116 85.5,56.5 Z"/></g>
<g><path style="opacity:0.564" fill="#c9cbcd" d="M 2.5,58.5 C 1.40168,57.3991 1.23502,56.0657 2,54.5C 2.49001,55.7932 2.65668,57.1266 2.5,58.5 Z"/></g>
<g><path style="opacity:0.574" fill="#c9cbcd" d="M 85.5,56.5 C 85.7373,57.791 85.404,58.791 84.5,59.5C 84.2627,58.209 84.596,57.209 85.5,56.5 Z"/></g>
<g><path style="opacity:0.647" fill="#c9cbcd" d="M 2.5,58.5 C 3.52502,58.8966 3.69169,59.5632 3,60.5C 2.53566,59.9056 2.36899,59.2389 2.5,58.5 Z"/></g>
<g><path style="opacity:0.541" fill="#c9cbcd" d="M 84.5,59.5 C 84.7373,60.791 84.404,61.791 83.5,62.5C 83.2627,61.209 83.596,60.209 84.5,59.5 Z"/></g>
<g><path style="opacity:0.437" fill="#c9cbcd" d="M 4.5,63.5 C 3.47498,63.1034 3.30831,62.4368 4,61.5C 4.46434,62.0944 4.63101,62.7611 4.5,63.5 Z"/></g>
<g><path style="opacity:0.406" fill="#c9cbcd" d="M 83.5,62.5 C 83.6716,63.4916 83.3382,64.1583 82.5,64.5C 82.3284,63.5084 82.6618,62.8417 83.5,62.5 Z"/></g>
<g><path style="opacity:0.539" fill="#c9cbcd" d="M 4.5,63.5 C 5.33825,63.8417 5.67158,64.5084 5.5,65.5C 4.66175,65.1583 4.32842,64.4916 4.5,63.5 Z"/></g>
<g><path style="opacity:0.525" fill="#c9cbcd" d="M 82.5,64.5 C 82.6716,65.4916 82.3382,66.1583 81.5,66.5C 81.3284,65.5084 81.6618,64.8417 82.5,64.5 Z"/></g>
<g><path style="opacity:0.533" fill="#c9cbcd" d="M 5.5,65.5 C 6.33825,65.8417 6.67158,66.5084 6.5,67.5C 5.66175,67.1583 5.32842,66.4916 5.5,65.5 Z"/></g>
<g><path style="opacity:0.453" fill="#c9cbcd" d="M 81.5,66.5 C 81.6716,67.4916 81.3382,68.1583 80.5,68.5C 80.3284,67.5084 80.6618,66.8417 81.5,66.5 Z"/></g>
<g><path style="opacity:0.753" fill="#c9cbcd" d="M 6.5,67.5 C 7.16667,67.5 7.5,67.8333 7.5,68.5C 7.16667,68.1667 6.83333,67.8333 6.5,67.5 Z"/></g>
<g><path style="opacity:0.6" fill="#c9cbcd" d="M 7.5,68.5 C 8.33825,68.8417 8.67158,69.5084 8.5,70.5C 7.66175,70.1583 7.32842,69.4916 7.5,68.5 Z"/></g>
<g><path style="opacity:0.342" fill="#c9cbcd" d="M 80.5,68.5 C 80.573,70.0269 79.9063,71.0269 78.5,71.5C 78.427,69.9731 79.0937,68.9731 80.5,68.5 Z"/></g>
<g><path style="opacity:0.643" fill="#c9cbcd" d="M 8.5,70.5 C 9.16667,70.5 9.5,70.8333 9.5,71.5C 9.16667,71.1667 8.83333,70.8333 8.5,70.5 Z"/></g>
<g><path style="opacity:0.314" fill="#c9cbcd" d="M 78.5,71.5 C 77.8333,72.1667 77.8333,72.1667 78.5,71.5 Z"/></g>
<g><path style="opacity:0.639" fill="#c9cbcd" d="M 76.5,72.5 C 76.8333,72.5 77.1667,72.5 77.5,72.5C 77.3147,73.1701 76.9813,73.1701 76.5,72.5 Z"/></g>
</svg>
